<?xml version="1.0" encoding="UTF-8" standalone="no"?>
<!-- Created with Inkscape (http://www.inkscape.org/) -->

<svg
   xmlns:dc="http://purl.org/dc/elements/1.1/"
   xmlns:cc="http://creativecommons.org/ns#"
   xmlns:rdf="http://www.w3.org/1999/02/22-rdf-syntax-ns#"
   xmlns:svg="http://www.w3.org/2000/svg"
   xmlns="http://www.w3.org/2000/svg"
   xmlns:sodipodi="http://sodipodi.sourceforge.net/DTD/sodipodi-0.dtd"
   xmlns:inkscape="http://www.inkscape.org/namespaces/inkscape"
   width="1003.2077"
   height="553.2077"
   viewBox="0 0 1003.2077 553.20769"
   id="svg2"
   version="1.1"
   inkscape:version="0.91 r13725"
   sodipodi:docname="huffman-boom-maxpath.svg">
  <defs
     id="defs4" />
  <sodipodi:namedview
     id="base"
     pagecolor="#ffffff"
     bordercolor="#666666"
     borderopacity="1.0"
     inkscape:pageopacity="1"
     inkscape:pageshadow="2"
     inkscape:zoom="1.5164126"
     inkscape:cx="373.6539"
     inkscape:cy="441.43638"
     inkscape:document-units="px"
     inkscape:current-layer="layer1"
     showgrid="false"
     inkscape:window-width="1366"
     inkscape:window-height="710"
     inkscape:window-x="0"
     inkscape:window-y="30"
     inkscape:window-maximized="1"
     fit-margin-top="0"
     fit-margin-left="0"
     fit-margin-right="300"
     fit-margin-bottom="0"
     units="px" />
  <metadata
     id="metadata7">
    <rdf:RDF>
      <cc:Work
         rdf:about="">
        <dc:format>image/svg+xml</dc:format>
        <dc:type
           rdf:resource="http://purl.org/dc/dcmitype/StillImage" />
        <dc:title></dc:title>
      </cc:Work>
    </rdf:RDF>
  </metadata>
  <g
     inkscape:label="Laag 1"
     inkscape:groupmode="layer"
     id="layer1"
     transform="translate(1177.3799,-1194.2445)">
    <g
       style="font-style:normal;font-weight:normal;font-size:25px;line-height:0%;font-family:sans-serif;letter-spacing:0px;word-spacing:0px;fill:#000000;fill-opacity:1;stroke:none;stroke-width:10;stroke-linecap:butt;stroke-linejoin:miter;stroke-miterlimit:4;stroke-dasharray:none;stroke-opacity:1"
       id="flowRoot4147" />
    <path
       style="opacity:0.98999999;fill:#000000;fill-opacity:0;stroke:#000000;stroke-width:10;stroke-linecap:butt;stroke-linejoin:round;stroke-miterlimit:4;stroke-dasharray:none;stroke-dashoffset:0;stroke-opacity:1"
       d="m -779.1722,1695.8483 a 46.603867,46.603863 0 0 1 -46.60386,46.6039 46.603867,46.603863 0 0 1 -46.60387,-46.6039 46.603867,46.603863 0 0 1 46.60387,-46.6039 46.603867,46.603863 0 0 1 46.60386,46.6039 z"
       id="path4155"
       inkscape:connector-curvature="0" />
    <path
       style="opacity:0.98999999;fill:#000000;fill-opacity:0;stroke:#000000;stroke-width:10;stroke-linecap:butt;stroke-linejoin:round;stroke-miterlimit:4;stroke-dasharray:none;stroke-dashoffset:0;stroke-opacity:1"
       d="m -1079.1722,1695.8483 a 46.603867,46.603863 0 0 1 -46.6039,46.6039 46.603867,46.603863 0 0 1 -46.6038,-46.6039 46.603867,46.603863 0 0 1 46.6038,-46.6039 46.603867,46.603863 0 0 1 46.6039,46.6039 z"
       id="path4155-3"
       inkscape:connector-curvature="0" />
    <path
       style="opacity:0.98999999;fill:#000000;fill-opacity:0;stroke:#000000;stroke-width:10;stroke-linecap:butt;stroke-linejoin:round;stroke-miterlimit:4;stroke-dasharray:none;stroke-dashoffset:0;stroke-opacity:1"
       d="m -629.1722,1545.8483 a 46.603867,46.603863 0 0 1 -46.60386,46.6039 46.603867,46.603863 0 0 1 -46.60387,-46.6039 46.603867,46.603863 0 0 1 46.60387,-46.6038 46.603867,46.603863 0 0 1 46.60386,46.6038 z"
       id="path4155-3-6"
       inkscape:connector-curvature="0" />
    <path
       style="opacity:0.98999999;fill:#000000;fill-opacity:0;stroke:#000000;stroke-width:10;stroke-linecap:butt;stroke-linejoin:round;stroke-miterlimit:4;stroke-dasharray:none;stroke-dashoffset:0;stroke-opacity:1"
       d="m -479.1722,1395.8484 a 46.603867,46.603863 0 0 1 -46.60387,46.6038 46.603867,46.603863 0 0 1 -46.60386,-46.6038 46.603867,46.603863 0 0 1 46.60386,-46.6039 46.603867,46.603863 0 0 1 46.60387,46.6039 z"
       id="path4155-3-6-7"
       inkscape:connector-curvature="0" />
    <path
       style="opacity:1;fill:#000000;fill-opacity:0;stroke:#000000;stroke-width:10;stroke-linecap:butt;stroke-linejoin:round;stroke-miterlimit:4;stroke-dasharray:none;stroke-dashoffset:0;stroke-opacity:1"
       d="m -629.1722,1245.8484 a 46.603867,46.603863 0 0 1 -46.60386,46.6038 46.603867,46.603863 0 0 1 -46.60387,-46.6038 46.603867,46.603863 0 0 1 46.60387,-46.6039 46.603867,46.603863 0 0 1 46.60386,46.6039 z"
       id="path4155-3-6-5"
       inkscape:connector-curvature="0" />
    <path
       style="opacity:0.98999999;fill:#000000;fill-opacity:0;stroke:#000000;stroke-width:10;stroke-linecap:butt;stroke-linejoin:round;stroke-miterlimit:4;stroke-dasharray:none;stroke-dashoffset:0;stroke-opacity:1"
       d="m -779.1722,1395.8484 a 46.603867,46.603863 0 0 1 -46.60386,46.6038 46.603867,46.603863 0 0 1 -46.60387,-46.6038 46.603867,46.603863 0 0 1 46.60387,-46.6039 46.603867,46.603863 0 0 1 46.60386,46.6039 z"
       id="path4155-3-6-3"
       inkscape:connector-curvature="0" />
    <path
       style="opacity:1;fill:#000000;fill-opacity:0;stroke:#000000;stroke-width:10;stroke-linecap:butt;stroke-linejoin:round;stroke-miterlimit:4;stroke-dasharray:none;stroke-dashoffset:0;stroke-opacity:1"
       inkscape:transform-center-y="-21.190235"
       d="m -926.54289,1592.4522 -48.38888,0 -48.38893,0 24.19448,-63.5707 24.19445,-63.5707 24.19444,63.5707 z"
       id="path4278"
       inkscape:connector-curvature="0" />
    <g
       style="font-style:normal;font-weight:normal;font-size:25px;line-height:0%;font-family:sans-serif;letter-spacing:0px;word-spacing:0px;opacity:1;fill:#000000;fill-opacity:1;stroke:none;stroke-width:10;stroke-linecap:butt;stroke-linejoin:miter;stroke-miterlimit:4;stroke-dasharray:none;stroke-opacity:1"
       id="text4164"
       transform="translate(-602.49998,602.49996)">
      <path
         d="m -97.480186,642.56226 0.976562,0 q 1.435547,0 2.119141,-0.47852 0.683593,-0.47852 0.683593,-1.50391 0,-1.01562 -0.703125,-1.44531 -0.693359,-0.42969 -2.158203,-0.42969 l -0.917968,0 0,3.85743 z m 0,2.46093 0,5.47852 -3.027344,0 0,-14.27734 4.160156,0 q 2.910156,0 4.306641,1.06445 1.396484,1.05469 1.396484,3.21289 0,1.25976 -0.693359,2.24609 -0.69336,0.97657 -1.962891,1.53321 3.222656,4.81445 4.199219,6.2207 l -3.359375,0 -3.408203,-5.47852 -1.611328,0 z"
         style="font-style:normal;font-variant:normal;font-weight:bold;font-stretch:normal;font-size:20px;font-family:'Open Sans';-inkscape-font-specification:'Open Sans Bold';text-align:center;text-anchor:middle;stroke-width:10;stroke-miterlimit:4;stroke-dasharray:none"
         id="path4175"
         inkscape:connector-curvature="0" />
      <path
         d="m -74.345421,643.34351 q 0,3.54492 -1.757812,5.44921 -1.757813,1.9043 -5.039063,1.9043 -3.28125,0 -5.039062,-1.9043 -1.757813,-1.90429 -1.757813,-5.46875 0,-3.56445 1.757813,-5.43945 1.767578,-1.88476 5.058593,-1.88476 3.291016,0 5.029297,1.89453 1.748047,1.89453 1.748047,5.44922 z m -10.419922,0 q 0,2.39257 0.908203,3.60351 0.908204,1.21094 2.714844,1.21094 3.623047,0 3.623047,-4.81445 0,-4.82422 -3.603516,-4.82422 -1.80664,0 -2.724609,1.2207 -0.917969,1.21094 -0.917969,3.60352 z"
         style="font-style:normal;font-variant:normal;font-weight:bold;font-stretch:normal;font-size:20px;font-family:'Open Sans';-inkscape-font-specification:'Open Sans Bold';text-align:center;text-anchor:middle;stroke-width:10;stroke-miterlimit:4;stroke-dasharray:none"
         id="path4177"
         inkscape:connector-curvature="0" />
      <path
         d="m -58.407921,643.34351 q 0,3.54492 -1.757812,5.44921 -1.757813,1.9043 -5.039063,1.9043 -3.28125,0 -5.039062,-1.9043 -1.757813,-1.90429 -1.757813,-5.46875 0,-3.56445 1.757813,-5.43945 1.767578,-1.88476 5.058593,-1.88476 3.291016,0 5.029297,1.89453 1.748047,1.89453 1.748047,5.44922 z m -10.419922,0 q 0,2.39257 0.908203,3.60351 0.908204,1.21094 2.714844,1.21094 3.623047,0 3.623047,-4.81445 0,-4.82422 -3.603516,-4.82422 -1.80664,0 -2.724609,1.2207 -0.917969,1.21094 -0.917969,3.60352 z"
         style="font-style:normal;font-variant:normal;font-weight:bold;font-stretch:normal;font-size:20px;font-family:'Open Sans';-inkscape-font-specification:'Open Sans Bold';text-align:center;text-anchor:middle;stroke-width:10;stroke-miterlimit:4;stroke-dasharray:none"
         id="path4179"
         inkscape:connector-curvature="0" />
      <path
         d="m -49.921593,650.50171 -3.027343,0 0,-11.75781 -3.876954,0 0,-2.51953 10.78125,0 0,2.51953 -3.876953,0 0,11.75781 z"
         style="font-style:normal;font-variant:normal;font-weight:bold;font-stretch:normal;font-size:20px;font-family:'Open Sans';-inkscape-font-specification:'Open Sans Bold';text-align:center;text-anchor:middle;stroke-width:10;stroke-miterlimit:4;stroke-dasharray:none"
         id="path4181"
         inkscape:connector-curvature="0" />
    </g>
    <g
       style="font-style:normal;font-weight:normal;font-size:25px;line-height:0%;font-family:sans-serif;letter-spacing:0px;word-spacing:0px;fill:#000000;fill-opacity:1;stroke:none;stroke-width:10;stroke-linecap:butt;stroke-linejoin:miter;stroke-miterlimit:4;stroke-dasharray:none;stroke-opacity:1"
       id="text4164-3"
       transform="translate(-652.49999,552.50003)">
      <path
         d="m 108.58916,836.2243 5.32226,14.27735 -2.70508,0 -5.32226,-14.27735 2.70508,0 z"
         style="font-style:normal;font-variant:normal;font-weight:bold;font-stretch:normal;font-size:20px;font-family:'Open Sans';-inkscape-font-specification:'Open Sans Bold';text-align:center;text-anchor:middle;stroke-width:10;stroke-miterlimit:4;stroke-dasharray:none"
         id="path4184"
         inkscape:connector-curvature="0" />
      <path
         d="m 124.75127,843.36298 q 0,3.74023 -1.23047,5.53711 -1.22071,1.79687 -3.76953,1.79687 -2.47071,0 -3.73047,-1.85547 -1.25,-1.85547 -1.25,-5.47851 0,-3.7793 1.2207,-5.56641 1.2207,-1.79688 3.75977,-1.79688 2.4707,0 3.73047,1.875 1.26953,1.875 1.26953,5.48829 z m -6.98243,0 q 0,2.62695 0.44922,3.76953 0.45899,1.13281 1.53321,1.13281 1.05468,0 1.52343,-1.15234 0.46875,-1.15235 0.46875,-3.75 0,-2.62696 -0.47851,-3.76954 -0.46875,-1.15234 -1.51367,-1.15234 -1.06446,0 -1.52344,1.15234 -0.45899,1.14258 -0.45899,3.76954 z"
         style="font-style:normal;font-variant:normal;font-weight:bold;font-stretch:normal;font-size:20px;font-family:'Open Sans';-inkscape-font-specification:'Open Sans Bold';text-align:center;text-anchor:middle;stroke-width:10;stroke-miterlimit:4;stroke-dasharray:none"
         id="path4186"
         inkscape:connector-curvature="0" />
      <path
         d="m 136.15752,843.36298 q 0,3.74023 -1.23047,5.53711 -1.22071,1.79687 -3.76953,1.79687 -2.47071,0 -3.73047,-1.85547 -1.25,-1.85547 -1.25,-5.47851 0,-3.7793 1.2207,-5.56641 1.2207,-1.79688 3.75977,-1.79688 2.4707,0 3.73047,1.875 1.26953,1.875 1.26953,5.48829 z m -6.98243,0 q 0,2.62695 0.44922,3.76953 0.45899,1.13281 1.53321,1.13281 1.05468,0 1.52343,-1.15234 0.46875,-1.15235 0.46875,-3.75 0,-2.62696 -0.47851,-3.76954 -0.46875,-1.15234 -1.51367,-1.15234 -1.06446,0 -1.52344,1.15234 -0.45899,1.14258 -0.45899,3.76954 z"
         style="font-style:normal;font-variant:normal;font-weight:bold;font-stretch:normal;font-size:20px;font-family:'Open Sans';-inkscape-font-specification:'Open Sans Bold';text-align:center;text-anchor:middle;stroke-width:10;stroke-miterlimit:4;stroke-dasharray:none"
         id="path4188"
         inkscape:connector-curvature="0" />
      <path
         d="m 147.56377,843.36298 q 0,3.74023 -1.23047,5.53711 -1.22071,1.79687 -3.76953,1.79687 -2.47071,0 -3.73047,-1.85547 -1.25,-1.85547 -1.25,-5.47851 0,-3.7793 1.2207,-5.56641 1.2207,-1.79688 3.75977,-1.79688 2.4707,0 3.73047,1.875 1.26953,1.875 1.26953,5.48829 z m -6.98243,0 q 0,2.62695 0.44922,3.76953 0.45899,1.13281 1.53321,1.13281 1.05468,0 1.52343,-1.15234 0.46875,-1.15235 0.46875,-3.75 0,-2.62696 -0.47851,-3.76954 -0.46875,-1.15234 -1.51367,-1.15234 -1.06446,0 -1.52344,1.15234 -0.45899,1.14258 -0.45899,3.76954 z"
         style="font-style:normal;font-variant:normal;font-weight:bold;font-stretch:normal;font-size:20px;font-family:'Open Sans';-inkscape-font-specification:'Open Sans Bold';text-align:center;text-anchor:middle;stroke-width:10;stroke-miterlimit:4;stroke-dasharray:none"
         id="path4190"
         inkscape:connector-curvature="0" />
    </g>
    <g
       style="font-style:normal;font-weight:normal;font-size:25px;line-height:0%;font-family:sans-serif;letter-spacing:0px;word-spacing:0px;fill:#000000;fill-opacity:1;stroke:none;stroke-width:10;stroke-linecap:butt;stroke-linejoin:miter;stroke-miterlimit:4;stroke-dasharray:none;stroke-opacity:1"
       id="text4164-3-7"
       transform="translate(-602.49998,502.49995)">
      <path
         d="m -90.190147,1036.2244 5.322265,14.2773 -2.705078,0 -5.322266,-14.2773 2.705079,0 z"
         style="font-style:normal;font-variant:normal;font-weight:bold;font-stretch:normal;font-size:20px;font-family:'Open Sans';-inkscape-font-specification:'Open Sans Bold';text-align:center;text-anchor:middle;stroke-width:10;stroke-miterlimit:4;stroke-dasharray:none"
         id="path4193"
         inkscape:connector-curvature="0" />
      <path
         d="m -74.028038,1043.363 q 0,3.7403 -1.230469,5.5371 -1.220703,1.7969 -3.769531,1.7969 -2.470703,0 -3.730469,-1.8554 -1.25,-1.8555 -1.25,-5.4786 0,-3.7793 1.220703,-5.5664 1.220703,-1.7968 3.759766,-1.7968 2.470703,0 3.730469,1.875 1.269531,1.875 1.269531,5.4882 z m -6.982422,0 q 0,2.627 0.449219,3.7696 0.458984,1.1328 1.533203,1.1328 1.054687,0 1.523437,-1.1524 0.46875,-1.1523 0.46875,-3.75 0,-2.6269 -0.478515,-3.7695 -0.46875,-1.1523 -1.513672,-1.1523 -1.064453,0 -1.523438,1.1523 -0.458984,1.1426 -0.458984,3.7695 z"
         style="font-style:normal;font-variant:normal;font-weight:bold;font-stretch:normal;font-size:20px;font-family:'Open Sans';-inkscape-font-specification:'Open Sans Bold';text-align:center;text-anchor:middle;stroke-width:10;stroke-miterlimit:4;stroke-dasharray:none"
         id="path4195"
         inkscape:connector-curvature="0" />
      <path
         d="m -62.621788,1043.363 q 0,3.7403 -1.230469,5.5371 -1.220703,1.7969 -3.769531,1.7969 -2.470703,0 -3.730469,-1.8554 -1.25,-1.8555 -1.25,-5.4786 0,-3.7793 1.220703,-5.5664 1.220703,-1.7968 3.759766,-1.7968 2.470703,0 3.730469,1.875 1.269531,1.875 1.269531,5.4882 z m -6.982422,0 q 0,2.627 0.449219,3.7696 0.458984,1.1328 1.533203,1.1328 1.054687,0 1.523437,-1.1524 0.46875,-1.1523 0.46875,-3.75 0,-2.6269 -0.478515,-3.7695 -0.46875,-1.1523 -1.513672,-1.1523 -1.064453,0 -1.523438,1.1523 -0.458984,1.1426 -0.458984,3.7695 z"
         style="font-style:normal;font-variant:normal;font-weight:bold;font-stretch:normal;font-size:20px;font-family:'Open Sans';-inkscape-font-specification:'Open Sans Bold';text-align:center;text-anchor:middle;stroke-width:10;stroke-miterlimit:4;stroke-dasharray:none"
         id="path4197"
         inkscape:connector-curvature="0" />
      <path
         d="m -53.656944,1050.5017 -3.017578,0 0,-8.2617 0.0293,-1.3574 0.04883,-1.4844 q -0.751954,0.7519 -1.044922,0.9863 l -1.640625,1.3184 -1.455078,-1.8164 4.599609,-3.6621 2.480469,0 0,14.2773 z"
         style="font-style:normal;font-variant:normal;font-weight:bold;font-stretch:normal;font-size:20px;font-family:'Open Sans';-inkscape-font-specification:'Open Sans Bold';text-align:center;text-anchor:middle;stroke-width:10;stroke-miterlimit:4;stroke-dasharray:none"
         id="path4199"
         inkscape:connector-curvature="0" />
    </g>
    <g
       style="font-style:normal;font-weight:normal;font-size:25px;line-height:0%;font-family:sans-serif;letter-spacing:0px;word-spacing:0px;fill:#000000;fill-opacity:1;stroke:none;stroke-width:10;stroke-linecap:butt;stroke-linejoin:miter;stroke-miterlimit:4;stroke-dasharray:none;stroke-opacity:1"
       id="text4164-3-3"
       transform="translate(-552.49997,452.4999)">
      <path
         d="m -291.61105,1236.2146 5.32226,14.2773 -2.70508,0 -5.32226,-14.2773 2.70508,0 z"
         style="font-style:normal;font-variant:normal;font-weight:bold;font-stretch:normal;font-size:20px;font-family:'Open Sans';-inkscape-font-specification:'Open Sans Bold';text-align:center;text-anchor:middle;stroke-width:10;stroke-miterlimit:4;stroke-dasharray:none"
         id="path4202"
         inkscape:connector-curvature="0" />
      <path
         d="m -275.37082,1250.4919 -9.98047,0 0,-2.0996 3.58399,-3.623 q 1.59179,-1.6309 2.08007,-2.2559 0.48829,-0.6347 0.70313,-1.1718 0.21484,-0.5372 0.21484,-1.1133 0,-0.8594 -0.47851,-1.2793 -0.46875,-0.4199 -1.25977,-0.4199 -0.83008,0 -1.61133,0.3808 -0.78125,0.3809 -1.63086,1.084 l -1.64062,-1.9434 q 1.05469,-0.8984 1.74805,-1.2695 0.69336,-0.3711 1.51367,-0.5664 0.82031,-0.2051 1.83594,-0.2051 1.33789,0 2.36328,0.4883 1.02539,0.4883 1.59179,1.3672 0.56641,0.8789 0.56641,2.0117 0,0.9863 -0.35156,1.8555 -0.3418,0.8594 -1.07422,1.7676 -0.72266,0.9082 -2.55859,2.5878 l -1.83594,1.7286 0,0.1367 6.2207,0 0,2.539 z"
         style="font-style:normal;font-variant:normal;font-weight:bold;font-stretch:normal;font-size:20px;font-family:'Open Sans';-inkscape-font-specification:'Open Sans Bold';text-align:center;text-anchor:middle;stroke-width:10;stroke-miterlimit:4;stroke-dasharray:none"
         id="path4204"
         inkscape:connector-curvature="0" />
      <path
         d="m -268.74973,1241.3708 q 2.07032,0 3.29102,1.1622 1.23047,1.1621 1.23047,3.1836 0,2.3925 -1.47461,3.6816 -1.47461,1.2891 -4.21875,1.2891 -2.38281,0 -3.84766,-0.7715 l 0,-2.6075 q 0.77149,0.4102 1.79688,0.6739 1.02539,0.2539 1.94336,0.2539 2.76367,0 2.76367,-2.2656 0,-2.1582 -2.86133,-2.1582 -0.51758,0 -1.14258,0.1074 -0.625,0.098 -1.01562,0.2148 l -1.20117,-0.6445 0.53711,-7.2754 7.74414,0 0,2.5586 -5.09766,0 -0.26367,2.8027 0.3418,-0.068 q 0.5957,-0.1368 1.4746,-0.1368 z"
         style="font-style:normal;font-variant:normal;font-weight:bold;font-stretch:normal;font-size:20px;font-family:'Open Sans';-inkscape-font-specification:'Open Sans Bold';text-align:center;text-anchor:middle;stroke-width:10;stroke-miterlimit:4;stroke-dasharray:none"
         id="path4206"
         inkscape:connector-curvature="0" />
      <path
         d="m -252.23605,1247.533 -1.71875,0 0,2.9589 -2.94922,0 0,-2.9589 -6.09375,0 0,-2.0997 6.25976,-9.2187 2.78321,0 0,8.9746 1.71875,0 0,2.3438 z m -4.66797,-2.3438 0,-2.4219 q 0,-0.6054 0.0488,-1.7578 0.0488,-1.1523 0.0781,-1.3379 l -0.0781,0 q -0.36133,0.8008 -0.86914,1.5625 l -2.61719,3.9551 3.4375,0 z"
         style="font-style:normal;font-variant:normal;font-weight:bold;font-stretch:normal;font-size:20px;font-family:'Open Sans';-inkscape-font-specification:'Open Sans Bold';text-align:center;text-anchor:middle;stroke-width:10;stroke-miterlimit:4;stroke-dasharray:none"
         id="path4208"
         inkscape:connector-curvature="0" />
    </g>
    <g
       style="font-style:normal;font-weight:normal;font-size:25px;line-height:0%;font-family:sans-serif;letter-spacing:0px;word-spacing:0px;fill:#000000;fill-opacity:1;stroke:none;stroke-width:10;stroke-linecap:butt;stroke-linejoin:miter;stroke-miterlimit:4;stroke-dasharray:none;stroke-opacity:1"
       id="text4212" />
    <g
       style="font-style:normal;font-weight:normal;font-size:25px;line-height:0%;font-family:sans-serif;letter-spacing:0px;word-spacing:0px;fill:#000000;fill-opacity:1;stroke:none;stroke-width:10;stroke-linecap:butt;stroke-linejoin:miter;stroke-miterlimit:4;stroke-dasharray:none;stroke-opacity:1"
       id="text4164-3-3-2"
       transform="translate(-452.49999,452.4999)">
      <path
         d="m -691.31805,1236.2146 5.32226,14.2773 -2.70508,0 -5.32226,-14.2773 2.70508,0 z"
         style="font-style:normal;font-variant:normal;font-weight:bold;font-stretch:normal;font-size:20px;font-family:'Open Sans';-inkscape-font-specification:'Open Sans Bold';text-align:center;text-anchor:middle;stroke-width:10;stroke-miterlimit:4;stroke-dasharray:none"
         id="path4212"
         inkscape:connector-curvature="0" />
      <path
         d="m -675.07782,1250.4919 -9.98047,0 0,-2.0996 3.58399,-3.623 q 1.59179,-1.6309 2.08007,-2.2559 0.48829,-0.6347 0.70313,-1.1718 0.21484,-0.5372 0.21484,-1.1133 0,-0.8594 -0.47851,-1.2793 -0.46875,-0.4199 -1.25977,-0.4199 -0.83008,0 -1.61133,0.3808 -0.78125,0.3809 -1.63086,1.084 l -1.64062,-1.9434 q 1.05469,-0.8984 1.74805,-1.2695 0.69336,-0.3711 1.51367,-0.5664 0.82031,-0.2051 1.83594,-0.2051 1.33789,0 2.36328,0.4883 1.02539,0.4883 1.59179,1.3672 0.56641,0.8789 0.56641,2.0117 0,0.9863 -0.35156,1.8555 -0.3418,0.8594 -1.07422,1.7676 -0.72266,0.9082 -2.5586,2.5878 l -1.83593,1.7286 0,0.1367 6.2207,0 0,2.539 z"
         style="font-style:normal;font-variant:normal;font-weight:bold;font-stretch:normal;font-size:20px;font-family:'Open Sans';-inkscape-font-specification:'Open Sans Bold';text-align:center;text-anchor:middle;stroke-width:10;stroke-miterlimit:4;stroke-dasharray:none"
         id="path4214"
         inkscape:connector-curvature="0" />
      <path
         d="m -668.45673,1241.3708 q 2.07032,0 3.29102,1.1622 1.23047,1.1621 1.23047,3.1836 0,2.3925 -1.47461,3.6816 -1.47461,1.2891 -4.21875,1.2891 -2.38281,0 -3.84766,-0.7715 l 0,-2.6075 q 0.77149,0.4102 1.79688,0.6739 1.02539,0.2539 1.94336,0.2539 2.76367,0 2.76367,-2.2656 0,-2.1582 -2.86133,-2.1582 -0.51758,0 -1.14258,0.1074 -0.625,0.098 -1.01562,0.2148 l -1.20117,-0.6445 0.53711,-7.2754 7.74414,0 0,2.5586 -5.09766,0 -0.26367,2.8027 0.34179,-0.068 q 0.59571,-0.1368 1.47461,-0.1368 z"
         style="font-style:normal;font-variant:normal;font-weight:bold;font-stretch:normal;font-size:20px;font-family:'Open Sans';-inkscape-font-specification:'Open Sans Bold';text-align:center;text-anchor:middle;stroke-width:10;stroke-miterlimit:4;stroke-dasharray:none"
         id="path4216"
         inkscape:connector-curvature="0" />
      <path
         d="m -657.05048,1241.3708 q 2.07032,0 3.29102,1.1622 1.23047,1.1621 1.23047,3.1836 0,2.3925 -1.47461,3.6816 -1.47461,1.2891 -4.21875,1.2891 -2.38281,0 -3.84766,-0.7715 l 0,-2.6075 q 0.77149,0.4102 1.79688,0.6739 1.02539,0.2539 1.94336,0.2539 2.76367,0 2.76367,-2.2656 0,-2.1582 -2.86133,-2.1582 -0.51758,0 -1.14258,0.1074 -0.625,0.098 -1.01562,0.2148 l -1.20117,-0.6445 0.53711,-7.2754 7.74414,0 0,2.5586 -5.09766,0 -0.26367,2.8027 0.34179,-0.068 q 0.59571,-0.1368 1.47461,-0.1368 z"
         style="font-style:normal;font-variant:normal;font-weight:bold;font-stretch:normal;font-size:20px;font-family:'Open Sans';-inkscape-font-specification:'Open Sans Bold';text-align:center;text-anchor:middle;stroke-width:10;stroke-miterlimit:4;stroke-dasharray:none"
         id="path4218"
         inkscape:connector-curvature="0" />
    </g>
    <g
       style="font-style:normal;font-weight:normal;font-size:25px;line-height:0%;font-family:sans-serif;letter-spacing:0px;word-spacing:0px;fill:#000000;fill-opacity:1;stroke:none;stroke-width:10;stroke-linecap:butt;stroke-linejoin:miter;stroke-miterlimit:4;stroke-dasharray:none;stroke-opacity:1"
       id="text4234" />
    <g
       transform="matrix(1.1622232,0,0,0.86041993,-502.02964,497.6826)"
       style="font-style:normal;font-weight:normal;font-size:29.05557823px;line-height:0%;font-family:sans-serif;letter-spacing:0px;word-spacing:0px;fill:#000000;fill-opacity:1;stroke:none;stroke-width:10;stroke-linecap:butt;stroke-linejoin:miter;stroke-miterlimit:4;stroke-dasharray:none;stroke-opacity:1"
       id="text4164-3-3-1">
      <path
         d="m -415.50897,1233.3505 q 0,-0.9534 0.51075,-1.4414 0.51074,-0.4881 1.48682,-0.4881 0.94204,0 1.45278,0.4994 0.5221,0.4994 0.5221,1.4301 0,0.8966 -0.5221,1.4187 -0.52209,0.5108 -1.45278,0.5108 -0.95338,0 -1.47548,-0.4994 -0.52209,-0.5108 -0.52209,-1.4301 z"
         style="font-style:normal;font-variant:normal;font-weight:bold;font-stretch:normal;font-size:23.2444706px;font-family:'Open Sans';-inkscape-font-specification:'Open Sans Bold';text-align:center;text-anchor:middle;stroke-width:10;stroke-miterlimit:4;stroke-dasharray:none"
         id="path4222"
         inkscape:connector-curvature="0" />
      <path
         d="m -408.88066,1233.3505 q 0,-0.9534 0.51074,-1.4414 0.51074,-0.4881 1.48683,-0.4881 0.94204,0 1.45278,0.4994 0.52209,0.4994 0.52209,1.4301 0,0.8966 -0.52209,1.4187 -0.52209,0.5108 -1.45278,0.5108 -0.95339,0 -1.47548,-0.4994 -0.52209,-0.5108 -0.52209,-1.4301 z"
         style="font-style:normal;font-variant:normal;font-weight:bold;font-stretch:normal;font-size:23.2444706px;font-family:'Open Sans';-inkscape-font-specification:'Open Sans Bold';text-align:center;text-anchor:middle;stroke-width:10;stroke-miterlimit:4;stroke-dasharray:none"
         id="path4224"
         inkscape:connector-curvature="0" />
      <path
         d="m -402.25236,1233.3505 q 0,-0.9534 0.51075,-1.4414 0.51074,-0.4881 1.48683,-0.4881 0.94203,0 1.45278,0.4994 0.52209,0.4994 0.52209,1.4301 0,0.8966 -0.52209,1.4187 -0.5221,0.5108 -1.45278,0.5108 -0.95339,0 -1.47548,-0.4994 -0.5221,-0.5108 -0.5221,-1.4301 z"
         style="font-style:normal;font-variant:normal;font-weight:bold;font-stretch:normal;font-size:23.2444706px;font-family:'Open Sans';-inkscape-font-specification:'Open Sans Bold';text-align:center;text-anchor:middle;stroke-width:10;stroke-miterlimit:4;stroke-dasharray:none"
         id="path4226"
         inkscape:connector-curvature="0" />
    </g>
    <rect
       style="opacity:1;fill:#ffffff;fill-opacity:1;stroke:#000000;stroke-width:0;stroke-linecap:butt;stroke-linejoin:miter;stroke-miterlimit:4;stroke-dasharray:none;stroke-dashoffset:0;stroke-opacity:1"
       id="rect4209"
       width="22.382513"
       height="83.934425"
       x="-197.87532"
       y="1419.1753" />
    <path
       style="fill:none;fill-rule:evenodd;stroke:#000000;stroke-width:10;stroke-linecap:butt;stroke-linejoin:miter;stroke-miterlimit:4;stroke-dasharray:none;stroke-opacity:1"
       d="m -1094.5343,1661.2674 77.7962,-86.1109"
       id="path4213"
       inkscape:connector-type="polyline"
       inkscape:connector-curvature="0"
       inkscape:connection-start="#path4155-3"
       inkscape:connection-end="#path4278" />
    <path
       style="fill:none;fill-rule:evenodd;stroke:#000000;stroke-width:10;stroke-linecap:butt;stroke-linejoin:miter;stroke-miterlimit:4;stroke-dasharray:none;stroke-opacity:1"
       d="m -932.77812,1576.0692 75.95459,85.0243"
       id="path4219"
       inkscape:connector-type="polyline"
       inkscape:connector-curvature="0"
       inkscape:connection-start="#path4278"
       inkscape:connection-end="#path4155" />
    <path
       style="fill:none;fill-rule:evenodd;stroke:#000000;stroke-width:10;stroke-linecap:butt;stroke-linejoin:miter;stroke-miterlimit:4;stroke-dasharray:none;stroke-opacity:1"
       d="m -860.55539,1426.8684 -96.31334,85.9029"
       id="path4221"
       inkscape:connector-type="polyline"
       inkscape:connector-curvature="0"
       inkscape:connection-start="#path4155-3-6-3"
       inkscape:connection-end="#path4278" />
    <path
       style="fill:none;fill-rule:evenodd;stroke:#000000;stroke-width:10;stroke-linecap:butt;stroke-linejoin:miter;stroke-miterlimit:4;stroke-dasharray:none;stroke-opacity:1"
       d="m -642.82216,1278.8023 84.09219,84.0921"
       id="path4223"
       inkscape:connector-type="polyline"
       inkscape:connector-curvature="0"
       inkscape:connection-start="#path4155-3-6-5"
       inkscape:connection-end="#path4155-3-6-7" />
    <path
       style="fill:none;fill-rule:evenodd;stroke:#000000;stroke-width:10;stroke-linecap:butt;stroke-linejoin:miter;stroke-miterlimit:4;stroke-dasharray:none;stroke-opacity:1"
       d="m -708.72997,1512.8944 -84.09219,-84.0921"
       id="path4225"
       inkscape:connector-type="polyline"
       inkscape:connector-curvature="0"
       inkscape:connection-start="#path4155-3-6"
       inkscape:connection-end="#path4155-3-6-3" />
    <path
       style="fill:none;fill-rule:evenodd;stroke:#000000;stroke-width:10;stroke-linecap:butt;stroke-linejoin:miter;stroke-opacity:1;stroke-miterlimit:4;stroke-dasharray:none"
       d="m -708.72997,1278.8023 -84.09219,84.0921"
       id="path4227"
       inkscape:connector-type="polyline"
       inkscape:connector-curvature="0"
       inkscape:connection-start="#path4155-3-6-5"
       inkscape:connection-end="#path4155-3-6-3" />
  </g>
</svg>
